<svg xmlns="http://www.w3.org/2000/svg" xmlns:xlink="http://www.w3.org/1999/xlink" width="173.188" height="58.857" viewBox="0 0 173.188 58.857"><defs><style>.a{fill:url(#a);}.b{fill:url(#b);}.c{fill:url(#c);}.d{fill:url(#d);}.e{fill:#002052;}</style><linearGradient id="a" x1="-0.707" y1="0.5" x2="0.97" y2="0.5" gradientUnits="objectBoundingBox"><stop offset="0.364" stop-color="#407da6"/><stop offset="0.443" stop-color="#326992"/><stop offset="0.593" stop-color="#1c4a73"/><stop offset="0.74" stop-color="#0c335c"/><stop offset="0.878" stop-color="#03254e"/><stop offset="1" stop-color="#00214a"/></linearGradient><linearGradient id="b" x1="-3.465" y1="0.5" x2="7.71" y2="0.5" xlink:href="#a"/><linearGradient id="c" x1="-0.032" y1="0.5" x2="3.523" y2="0.5" xlink:href="#a"/><linearGradient id="d" x1="-4.06" y1="0.5" x2="8.763" y2="0.5" xlink:href="#a"/></defs><g transform="translate(-323.806 -287.151)"><path class="a" d="M568.091,347.414a17.807,17.807,0,0,0-17.128-16.369c-5.957-.253-10.353,2.141-14.663,6.451-.385.376-3.888,3.852-4.69,4.653-.771-.768-3.176-3.282-3.788-3.888-.662-.655-3.005-2.882-3.56-3.33a15.219,15.219,0,0,0-1.48-1.095c-.65-.4-1.315-.783-1.993-1.135-.288-.149-5.611-2.674-11.032-1.354-8.611,1.636-14.39,8.653-14.39,18.707,0,.394.026,26.872.026,26.872h6.083a3.439,3.439,0,0,0,3.439-3.439v-8.929a17.524,17.524,0,0,0,7.246,1.988,17.718,17.718,0,0,0,9.31-2.073c.151-.073.3-.149.445-.233a16.675,16.675,0,0,0,1.7-1.093c.7-.539,1.375-1.126,2.028-1.727.6-.552,4.354-4.335,4.931-4.913.376-.376,4.349-4.337,4.934-4.918s3.837-3.819,5.449-5.426c.639-.639,3.781-3.5,4.233-3.951a7.928,7.928,0,0,1,5.559-2.154,9.489,9.489,0,0,1,2.965.587h0a8.512,8.512,0,0,1,5.122,5.255,9.574,9.574,0,0,1,.448,2.72,8.491,8.491,0,0,1-13.573,6.8,74.171,74.171,0,0,1-5.973-4.752c-1.665,1.665-6.782,6.429-6.782,6.429a1.333,1.333,0,0,0-.445.869l-.011,18.956,6.052.031a3.631,3.631,0,0,0,3.555-3.7l.032-8.167a22.979,22.979,0,0,0,8.108,1.473A17.885,17.885,0,0,0,568.091,347.414Zm-46.87,5.536c-2.135,2.254-4.574,4.2-8.265,4.336a7.271,7.271,0,0,1-1.89-.214,8.4,8.4,0,0,1-1.029-.3h0a8.511,8.511,0,0,1-5.122-5.255l-.091-.293a8.489,8.489,0,0,1,13.215-9.229c.536.383,2.639,2.477,3.214,3.067.936.961,3.78,3.9,3.7,3.814C523.42,350.537,522.846,351.233,521.221,352.949Z" transform="translate(-121.181 -30.95)"/><circle class="b" cx="5.462" cy="5.462" r="5.462" transform="translate(359.454 289.66) rotate(-13.283)"/><path class="c" d="M355.737,304.74l.022-.544h-8.891l-.058.452c-1.048,8.217-3.562,11.129-9.607,11.129-.9,0-2.806-.051-3.684-.15V295.468a3.842,3.842,0,0,0-3.729-3.946h-5.985v46.46h6.167a3.655,3.655,0,0,0,3.547-3.754v-9.973c.933.1,2.806.147,3.684.147a16.388,16.388,0,0,0,2.152-.093l7.53,13.673h11.265L348.3,321.214C352.861,317.98,355.43,312.3,355.737,304.74Z" transform="translate(0 -3.088)"/><path class="d" d="M451.7,338.238V368.6h6.09a3.616,3.616,0,0,0,3.43-3.778V334.815h-6.1A3.423,3.423,0,0,0,451.7,338.238Z" transform="translate(-90.341 -33.668)"/><path class="e" d="M754.751,386.962a.651.651,0,0,1,.61-1.149,4.757,4.757,0,0,0,2.1.6c.529,0,1.654-.143,1.647-.915,0-.584-.632-.7-1.691-.87-1.147-.188-2.905-.452-2.9-2.241,0-1.727,1.634-2.4,2.979-2.4a5.5,5.5,0,0,1,2.537.7.647.647,0,1,1-.612,1.14,4.15,4.15,0,0,0-1.991-.555c-1.124,0-1.57.54-1.568,1.054,0,.611.63.7,1.557.864,1.4.253,3.031.595,3.031,2.259,0,1.819-1.94,2.248-3.031,2.248A5.69,5.69,0,0,1,754.751,386.962Z" transform="translate(-304.162 -65.573)"/><path class="e" d="M793.813,387.636a.672.672,0,0,1-.886-.345l-.551-1.254h-3.213l-.551,1.254a.672.672,0,1,1-1.231-.541l2.769-6.237a.679.679,0,0,1,1.24,0l2.768,6.237A.672.672,0,0,1,793.813,387.636Zm-2.027-2.944-1.016-2.316-1.016,2.316Z" transform="translate(-327.405 -65.662)"/><path class="e" d="M821.8,379.481V376.02a.672.672,0,1,1,1.344,0v3.461a2.182,2.182,0,0,0,4.365,0V376.02a.672.672,0,1,1,1.344,0v3.461a3.527,3.527,0,0,1-7.053,0Zm3.754-3.828a.5.5,0,0,1-.453-.714l.611-1.3a.659.659,0,1,1,1.116.685l-.878,1.133A.5.5,0,0,1,825.555,375.652Z" transform="translate(-351.759 -60.826)"/><path class="e" d="M866.158,384.107a3.775,3.775,0,0,1-3.8,3.748H860a.672.672,0,0,1-.672-.673v-6.15a.672.672,0,0,1,.672-.672h2.359A3.775,3.775,0,0,1,866.158,384.107Zm-1.345,0a2.458,2.458,0,0,0-2.458-2.458H860.67v4.916h1.686A2.458,2.458,0,0,0,864.814,384.107Z" transform="translate(-378.264 -65.838)"/><path class="e" d="M900.326,387.21a.644.644,0,0,1-.645.645h-4.194a.672.672,0,0,1-.672-.673v-6.15a.672.672,0,0,1,.672-.672h4.194a.645.645,0,0,1,0,1.289H896.16v2.034h2.86a.645.645,0,0,1,0,1.289h-2.86v1.593h3.521A.645.645,0,0,1,900.326,387.21Z" transform="translate(-403.332 -65.838)"/><path class="e" d="M753.325,405.635" transform="translate(-303.391 -83.691)"/><path class="e" d="M786.688,406.481" transform="translate(-326.957 -84.289)"/></g></svg>