<svg width="117" height="36" fill="#003A2F" xmlns="http://www.w3.org/2000/svg"><path fill-rule="evenodd" clip-rule="evenodd" d="M2.802 0H20.24c1.46 0 2.802 1.104 2.802 2.807v5.614h-7.904V5.614H7.904v2.327c1.03.552 14.348 5.926 14.443 5.998.647.456.671.84.671 1.583v7.102c-.024 0 .024 0 0 0 0 1.631-1.198 2.903-2.61 2.903 0 .024 0-.024 0 0H2.586C1.34 25.55 0 24.255 0 22.912v-6.166h.096v-.096h7.712v.096h.096v3.19h7.234V17.61c-1.677-.6-13.126-5.303-13.94-5.638l-.12-.072c.024.024-.695-.192-1.054-1.584V2.711C0 1.08 1.557 0 2.802 0zM53.605 25.55h7.808v-9.26h.096v-.096h8.096v9.357h7.784v-.096h.096V.096h-.096V0h-7.784v9.453h-8.192V0h-7.808v25.55zM26.347 22.84c0 1.343 1.198 2.71 2.611 2.71h18.683c1.605 0 2.61-1.463 2.61-2.71V0h-7.904v19.457h-8.191V0h-7.809v22.84zM93.437 8.42l2.132 7.774h-4.431l2.3-7.773zM80.144 25.55h8l.958-3.55h8.479l.958 3.55h8L97.485 0h-8.287c-1.174 3.359-9.054 24.087-9.054 25.55z" fill="#003A2F"/><path d="M116.958 0h-7.808v25.55h7.808V0zM29.51 34.187c.382.24.91.432 1.484.432.862 0 1.365-.456 1.365-1.104 0-.6-.335-.96-1.221-1.271-1.054-.384-1.725-.936-1.725-1.848 0-1.007.839-1.775 2.108-1.775.647 0 1.15.144 1.437.312l-.24.696c-.19-.12-.646-.312-1.22-.312-.887 0-1.222.528-1.222.983 0 .6.383.912 1.293 1.248 1.102.432 1.653.96 1.653 1.92 0 1.007-.743 1.87-2.276 1.87-.623 0-1.317-.191-1.652-.431l.215-.72zM37.916 32.172h-2.515v2.352h2.803v.695h-3.665v-6.501h3.521v.695h-2.659v2.064h2.515v.695zM44.455 34.931a5.912 5.912 0 01-2.012.36c-.982 0-1.796-.24-2.419-.864-.55-.551-.91-1.415-.91-2.423 0-1.943 1.341-3.358 3.52-3.358.743 0 1.342.167 1.63.287l-.216.696c-.335-.168-.79-.288-1.437-.288-1.58 0-2.61.984-2.61 2.615 0 1.656.981 2.615 2.514 2.615.551 0 .934-.072 1.126-.168V32.46h-1.317v-.672h2.131v3.143zM46.755 28.717v3.863c0 1.44.646 2.063 1.509 2.063.958 0 1.58-.648 1.58-2.063v-3.863h.839v3.791c0 1.991-1.054 2.807-2.467 2.807-1.341 0-2.324-.744-2.324-2.783v-3.839h.863v.024zM52.335 28.79a10.21 10.21 0 011.605-.145c.886 0 1.485.168 1.868.528.312.288.503.744.503 1.248 0 .84-.55 1.415-1.221 1.655v.024c.503.168.79.648.934 1.32.215.911.36 1.535.503 1.775h-.862c-.096-.192-.24-.744-.431-1.56-.192-.887-.551-1.223-1.318-1.27h-.742v2.806h-.839V28.79zm.839 2.974h.862c.886 0 1.461-.503 1.461-1.223 0-.84-.599-1.2-1.485-1.2-.407 0-.695.024-.838.072v2.351zM58.803 33.18l-.671 2.04h-.862l2.227-6.502h1.006l2.228 6.501h-.934l-.695-2.039h-2.3zm2.155-.672l-.646-1.87c-.144-.433-.24-.817-.336-1.177h-.024c-.095.384-.191.792-.335 1.176l-.647 1.871h1.988zM63.857 28.814a9.81 9.81 0 011.772-.144c1.198 0 2.06.288 2.635.816.599.527.934 1.271.934 2.327 0 1.055-.335 1.92-.934 2.519-.623.6-1.629.935-2.874.935-.6 0-1.102-.024-1.533-.072v-6.381zm.838 5.734c.216.024.527.048.838.048 1.797 0 2.755-1.008 2.755-2.76 0-1.535-.862-2.518-2.635-2.518-.431 0-.767.048-.982.096v5.134h.024zM76 31.884c0 2.232-1.365 3.431-3.018 3.431-1.725 0-2.922-1.343-2.922-3.31 0-2.064 1.27-3.407 3.018-3.407 1.772 0 2.922 1.367 2.922 3.287zm-5.054.096c0 1.392.743 2.64 2.084 2.64 1.341 0 2.084-1.224 2.084-2.711 0-1.296-.67-2.664-2.06-2.664-1.413.024-2.108 1.32-2.108 2.735zM77.293 28.79a10.21 10.21 0 011.605-.145c.886 0 1.485.168 1.868.528.312.288.503.744.503 1.248 0 .84-.55 1.415-1.221 1.655v.024c.503.168.79.648.934 1.32.216.911.36 1.535.503 1.775h-.862c-.096-.192-.24-.744-.431-1.56-.192-.887-.551-1.223-1.318-1.27h-.79v2.806h-.838V28.79h.047zm.839 2.974h.862c.886 0 1.461-.503 1.461-1.223 0-.84-.599-1.2-1.485-1.2-.407 0-.695.024-.838.072v2.351zM83.76 33.18l-.67 2.04h-.862l2.227-6.502h1.006l2.228 6.501h-.886l-.695-2.039H83.76zm2.132-.672l-.646-1.87c-.144-.433-.24-.817-.336-1.177h-.024c-.095.384-.191.792-.335 1.176l-.647 1.871h1.988z" fill="#003A2F"/></svg>